<?xml version="1.0" standalone="no"?>
<svg xmlns:xlink="http://www.w3.org/1999/xlink" id="wave" style="transform:rotate(0deg); transition: 0.3s" viewBox="0 0 1440 290" version="1.1" xmlns="http://www.w3.org/2000/svg"><defs><linearGradient id="sw-gradient-0" x1="0" x2="0" y1="1" y2="0"><stop stop-color="rgba(21.249, 170.997, 225.093, 1)" offset="0%"/><stop stop-color="rgba(68.707, 91.958, 255, 1)" offset="100%"/></linearGradient></defs><path style="transform:translate(0, 0px); opacity:1" fill="url(#sw-gradient-0)" d="M0,87L24,72.5C48,58,96,29,144,24.2C192,19,240,39,288,43.5C336,48,384,39,432,48.3C480,58,528,87,576,116C624,145,672,174,720,178.8C768,184,816,164,864,164.3C912,164,960,184,1008,193.3C1056,203,1104,203,1152,174C1200,145,1248,87,1296,72.5C1344,58,1392,87,1440,125.7C1488,164,1536,213,1584,232C1632,251,1680,242,1728,222.3C1776,203,1824,174,1872,149.8C1920,126,1968,106,2016,120.8C2064,135,2112,184,2160,212.7C2208,242,2256,251,2304,256.2C2352,261,2400,261,2448,256.2C2496,251,2544,242,2592,227.2C2640,213,2688,193,2736,193.3C2784,193,2832,213,2880,193.3C2928,174,2976,116,3024,87C3072,58,3120,58,3168,62.8C3216,68,3264,77,3312,106.3C3360,135,3408,184,3432,207.8L3456,232L3456,290L3432,290C3408,290,3360,290,3312,290C3264,290,3216,290,3168,290C3120,290,3072,290,3024,290C2976,290,2928,290,2880,290C2832,290,2784,290,2736,290C2688,290,2640,290,2592,290C2544,290,2496,290,2448,290C2400,290,2352,290,2304,290C2256,290,2208,290,2160,290C2112,290,2064,290,2016,290C1968,290,1920,290,1872,290C1824,290,1776,290,1728,290C1680,290,1632,290,1584,290C1536,290,1488,290,1440,290C1392,290,1344,290,1296,290C1248,290,1200,290,1152,290C1104,290,1056,290,1008,290C960,290,912,290,864,290C816,290,768,290,720,290C672,290,624,290,576,290C528,290,480,290,432,290C384,290,336,290,288,290C240,290,192,290,144,290C96,290,48,290,24,290L0,290Z"/><defs><linearGradient id="sw-gradient-1" x1="0" x2="0" y1="1" y2="0"><stop stop-color="rgba(0, 135, 255, 1)" offset="0%"/><stop stop-color="rgba(255, 255, 255, 1)" offset="100%"/></linearGradient></defs><path style="transform:translate(0, 50px); opacity:0.9" fill="url(#sw-gradient-1)" d="M0,203L24,178.8C48,155,96,106,144,72.5C192,39,240,19,288,19.3C336,19,384,39,432,48.3C480,58,528,58,576,87C624,116,672,174,720,198.2C768,222,816,213,864,178.8C912,145,960,87,1008,91.8C1056,97,1104,164,1152,159.5C1200,155,1248,77,1296,82.2C1344,87,1392,174,1440,212.7C1488,251,1536,242,1584,217.5C1632,193,1680,155,1728,149.8C1776,145,1824,174,1872,154.7C1920,135,1968,68,2016,48.3C2064,29,2112,58,2160,96.7C2208,135,2256,184,2304,188.5C2352,193,2400,155,2448,145C2496,135,2544,155,2592,159.5C2640,164,2688,155,2736,130.5C2784,106,2832,68,2880,58C2928,48,2976,68,3024,91.8C3072,116,3120,145,3168,149.8C3216,155,3264,135,3312,120.8C3360,106,3408,97,3432,91.8L3456,87L3456,290L3432,290C3408,290,3360,290,3312,290C3264,290,3216,290,3168,290C3120,290,3072,290,3024,290C2976,290,2928,290,2880,290C2832,290,2784,290,2736,290C2688,290,2640,290,2592,290C2544,290,2496,290,2448,290C2400,290,2352,290,2304,290C2256,290,2208,290,2160,290C2112,290,2064,290,2016,290C1968,290,1920,290,1872,290C1824,290,1776,290,1728,290C1680,290,1632,290,1584,290C1536,290,1488,290,1440,290C1392,290,1344,290,1296,290C1248,290,1200,290,1152,290C1104,290,1056,290,1008,290C960,290,912,290,864,290C816,290,768,290,720,290C672,290,624,290,576,290C528,290,480,290,432,290C384,290,336,290,288,290C240,290,192,290,144,290C96,290,48,290,24,290L0,290Z"/></svg>